<svg xmlns="http://www.w3.org/2000/svg" width="512" height="512" viewBox="0 0 512 512">
  <rect width="512" height="512" fill="#007aff"/>
  <g transform="translate(96,112)">
    <rect x="0" y="22" width="320" height="256" rx="28" fill="#ffffff"/>
    <rect x="0" y="22" width="320" height="64" rx="28" fill="#0a2540" fill-opacity="0.12"/>
    <rect x="40" y="0" width="22" height="56" rx="11" fill="#ffffff"/>
    <rect x="258" y="0" width="22" height="56" rx="11" fill="#ffffff"/>
    <g fill="#007aff" fill-opacity="0.85">
      <rect x="32" y="112" width="48" height="48" rx="10"/>
      <rect x="104" y="112" width="48" height="48" rx="10"/>
      <rect x="176" y="112" width="48" height="48" rx="10"/>
      <rect x="248" y="112" width="40" height="48" rx="10"/>
      <rect x="32" y="180" width="48" height="48" rx="10" fill="#ff3b30"/>
      <rect x="104" y="180" width="48" height="48" rx="10"/>
      <rect x="176" y="180" width="48" height="48" rx="10"/>
    </g>
  </g>
</svg>
